<svg width="39" height="40" viewBox="0 0 39 40" fill="none" xmlns="http://www.w3.org/2000/svg">
<g clip-path="url(#clip0_492_2556)">
<path d="M38.0019 22.1167C37.6435 29.9353 30.5289 38.6519 20.3622 39.2686C17.85 39.3772 15.3412 38.9845 12.9791 38.1129C10.617 37.2412 8.4479 35.9078 6.59553 34.1887C2.85451 30.7167 0.630943 25.8845 0.41397 20.7551C0.306536 18.2152 0.694974 15.6789 1.5571 13.2908C2.41922 10.9027 3.73814 8.70971 5.43857 6.83697C8.87275 3.0548 13.6524 0.806763 18.726 0.587403C29.8566 0.362343 37.4543 9.32875 38.0487 17.728H34.803C33.7924 15.4842 33.1245 13.1705 31.8334 11.2733C28.2315 5.93259 23.0647 3.56945 16.7381 4.58898C10.3692 5.6175 6.11505 9.51331 4.35197 15.7565C2.58889 21.9997 4.29409 27.4866 9.13589 31.7065C18.0404 39.4689 31.5306 34.8911 34.1396 23.2915C34.3734 22.2517 34.7897 22.0424 35.6846 22.1077C36.4503 22.1617 37.225 22.1167 38.0019 22.1167Z" fill="#004816"/>
<path d="M5.25144 39.9887C4.13839 39.9887 3.06763 40.0292 2.00578 39.9571C1.85558 39.907 1.72074 39.8185 1.61428 39.7002C1.50781 39.5819 1.43333 39.4379 1.39804 39.282C1.35352 36.7793 1.3691 34.2744 1.3691 31.4229C1.87665 32.0778 2.18831 32.4964 2.51555 32.9037C2.88954 33.3674 3.20342 33.9323 3.67314 34.2541C5.6989 35.69 5.5208 37.7133 5.25144 39.9887Z" fill="#004816"/>
<path d="M1.43799 0H5.35819C5.35819 1.21758 5.35819 2.36314 5.35819 3.51095C5.35984 3.69626 5.3003 3.87683 5.189 4.02408C3.96909 5.3992 2.74027 6.75856 1.44467 8.1832L1.43799 0Z" fill="#004816"/>
</g>
<defs>
<clipPath id="clip0_492_2556">
<rect width="38.0488" height="40" fill="white"/>
</clipPath>
</defs>
</svg>
